<svg width="18" height="22" viewBox="0 0 18 22" fill="none" xmlns="http://www.w3.org/2000/svg">
<path d="M4.5 0.000366211C4.372 0.000366211 4.24398 0.0493506 4.14648 0.146851C3.95148 0.341851 3.95148 0.658882 4.14648 0.853882L5.45703 2.16443C3.96911 3.25628 3 5.01312 3 7.00037H15C15 5.01312 14.0309 3.25628 12.543 2.16443L13.8535 0.853882C14.0485 0.657882 14.0485 0.342851 13.8535 0.146851C13.6585 -0.0481494 13.3415 -0.0481494 13.1465 0.146851L11.6641 1.62927C10.8606 1.22993 9.95819 1.00037 9 1.00037C8.04181 1.00037 7.13938 1.22993 6.33594 1.62927L4.85352 0.146851C4.75602 0.0493506 4.628 0.000366211 4.5 0.000366211ZM6 4.00037H7V5.00037H6V4.00037ZM11 4.00037H12V5.00037H11V4.00037ZM1 8.00037C0.448 8.00037 0 8.44837 0 9.00037V15.0004C0 15.5524 0.448 16.0004 1 16.0004C1.552 16.0004 2 15.5524 2 15.0004V9.00037C2 8.44837 1.552 8.00037 1 8.00037ZM3 8.00037V16.0004C3 16.5524 3.448 17.0004 4 17.0004H5V20.5004C5 21.3284 5.672 22.0004 6.5 22.0004C7.328 22.0004 8 21.3284 8 20.5004V17.0004H10V20.5004C10 21.3284 10.672 22.0004 11.5 22.0004C12.328 22.0004 13 21.3284 13 20.5004V17.0004H14C14.552 17.0004 15 16.5524 15 16.0004V8.00037H3ZM17 8.00037C16.448 8.00037 16 8.44837 16 9.00037V15.0004C16 15.5524 16.448 16.0004 17 16.0004C17.552 16.0004 18 15.5524 18 15.0004V9.00037C18 8.44837 17.552 8.00037 17 8.00037Z" fill="#686E80"/>
</svg>
