<svg width="18" height="20" viewBox="0 0 18 20" fill="none" xmlns="http://www.w3.org/2000/svg">
<path d="M13.125 0.000366211C11.972 0.0673662 10.6483 0.70971 9.86133 1.52771C9.15033 2.27171 8.58936 3.37668 8.81836 4.44568C10.0714 4.47868 11.329 3.81969 12.082 2.98669C12.785 2.20769 13.318 1.12037 13.125 0.000366211ZM13.1934 4.44373C11.3844 4.44373 10.628 5.55505 9.375 5.55505C8.086 5.55505 6.90766 4.51404 5.34766 4.51404C3.22566 4.51504 0 6.48069 0 11.1117C0 15.3247 3.81766 20.0004 5.97266 20.0004C7.28166 20.0134 7.599 19.1773 9.375 19.1683C11.153 19.1553 11.5367 20.0114 12.8477 20.0004C14.3237 19.9894 15.4764 18.3674 16.3184 17.0824C16.9224 16.1624 17.1707 15.6927 17.6387 14.6527C14.1657 13.7727 13.4747 8.17204 17.6387 7.01404C16.8527 5.67304 14.5584 4.44373 13.1934 4.44373Z" fill="#686E80"/>
</svg>
