<svg width="10" height="8" viewBox="0 0 10 8" fill="none" xmlns="http://www.w3.org/2000/svg">
<path d="M8.60824 1.00054L8.60354 0.850613C8.46375 0.854989 8.33265 0.916214 8.23731 1.01884L3.66907 5.8179L1.76466 3.81728C1.7164 3.76479 1.65831 3.72243 1.59354 3.69301C1.52824 3.66337 1.45767 3.64758 1.38602 3.64681C1.31437 3.64605 1.24348 3.66032 1.17758 3.68859C1.1117 3.71684 1.05236 3.75841 1.00281 3.81046C0.953285 3.86249 0.914515 3.92397 0.888418 3.99112C0.862325 4.05826 0.849328 4.12996 0.850027 4.20208C0.850725 4.2742 0.865108 4.34563 0.892512 4.41223C0.919709 4.47834 0.959288 4.53861 1.00931 4.58937L3.29139 6.98675L3.29141 6.98678C3.39027 7.09059 3.52594 7.15037 3.66907 7.15037C3.81219 7.15037 3.94787 7.09059 4.04672 6.98678L4.04674 6.98675L8.99268 1.79093C9.06832 1.71335 9.11917 1.61455 9.13974 1.50778C9.16037 1.40064 9.14977 1.28939 9.10904 1.18828C9.06829 1.08712 8.9989 1.00002 8.9088 0.939293C8.8186 0.878488 8.71218 0.847248 8.60359 0.850612L8.60824 1.00054Z" fill="#1DB954" stroke="#1DB954" stroke-width="0.3"/>
</svg>
