<svg width="16" height="15" viewBox="0 0 16 15" fill="none" xmlns="http://www.w3.org/2000/svg">
<path d="M1.99026 -0.0093919C1.79132 -0.00933965 1.59693 0.050039 1.43192 0.161153C1.26691 0.272266 1.13878 0.430066 1.06393 0.614378C0.989069 0.79869 0.97088 1.00114 1.01168 1.19584C1.05249 1.39055 1.15043 1.56866 1.29299 1.7074L6.58596 7.00037L1.29299 12.2933C1.19702 12.3855 1.1204 12.4959 1.06761 12.618C1.01483 12.7401 0.98694 12.8715 0.985586 13.0046C0.984233 13.1376 1.00944 13.2696 1.05973 13.3928C1.11002 13.516 1.18438 13.6279 1.27846 13.7219C1.37254 13.816 1.48444 13.8904 1.60762 13.9407C1.7308 13.991 1.86277 14.0162 1.99581 14.0148C2.12885 14.0135 2.26028 13.9856 2.38241 13.9328C2.50454 13.88 2.61491 13.8034 2.70705 13.7074L8.00002 8.41444L13.293 13.7074C13.3851 13.8034 13.4955 13.88 13.6176 13.9328C13.7398 13.9856 13.8712 14.0135 14.0042 14.0148C14.1373 14.0162 14.2693 13.991 14.3924 13.9407C14.5156 13.8904 14.6275 13.816 14.7216 13.7219C14.8157 13.6279 14.89 13.516 14.9403 13.3928C14.9906 13.2696 15.0158 13.1376 15.0145 13.0046C15.0131 12.8715 14.9852 12.7401 14.9324 12.618C14.8797 12.4959 14.803 12.3855 14.7071 12.2933L9.41408 7.00037L14.7071 1.7074C14.8516 1.56694 14.9503 1.3861 14.9902 1.18858C15.0302 0.991062 15.0095 0.786078 14.931 0.600492C14.8524 0.414907 14.7197 0.257377 14.5501 0.148548C14.3805 0.039719 14.1819 -0.0153323 13.9805 -0.0093919C13.7207 -0.00165076 13.4741 0.106928 13.293 0.293342L8.00002 5.58631L2.70705 0.293342C2.61386 0.197548 2.50242 0.121403 2.37931 0.0694064C2.25619 0.0174096 2.1239 -0.00938411 1.99026 -0.0093919Z" fill="#CE3838"/>
</svg>
