<svg width="24" height="24" viewBox="0 0 24 24" fill="none" xmlns="http://www.w3.org/2000/svg">
<path d="M12.35 4.00037C7.73852 4.00037 4 7.73889 4 12.3504C4 16.9618 7.73852 20.7004 12.35 20.7004C16.9615 20.7004 20.7 16.9618 20.7 12.3504C20.7 7.73889 16.9615 4.00037 12.35 4.00037ZM12.35 5.51855C16.1231 5.51855 19.1818 8.57731 19.1818 12.3504C19.1818 16.1234 16.1231 19.1822 12.35 19.1822C8.57694 19.1822 5.51818 16.1234 5.51818 12.3504C5.51818 8.57731 8.57694 5.51855 12.35 5.51855ZM9.31364 11.5913C8.89462 11.5913 8.55455 11.9313 8.55455 12.3504C8.55455 12.7694 8.89462 13.1095 9.31364 13.1095H15.3864C15.8054 13.1095 16.1455 12.7694 16.1455 12.3504C16.1455 11.9313 15.8054 11.5913 15.3864 11.5913H9.31364Z" fill="#2F7EF3"/>
</svg>
