<svg width="24" height="24" viewBox="0 0 24 24" fill="none" xmlns="http://www.w3.org/2000/svg">
<path d="M12.35 4.00037C7.73852 4.00037 4 7.73889 4 12.3504C4 16.9618 7.73852 20.7004 12.35 20.7004C16.9615 20.7004 20.7 16.9618 20.7 12.3504C20.7 7.73889 16.9615 4.00037 12.35 4.00037ZM12.35 5.51855C16.1231 5.51855 19.1818 8.57731 19.1818 12.3504C19.1818 16.1234 16.1231 19.1822 12.35 19.1822C8.57694 19.1822 5.51818 16.1234 5.51818 12.3504C5.51818 8.57731 8.57694 5.51855 12.35 5.51855ZM12.35 8.93446C11.9306 8.93446 11.5909 9.27453 11.5909 9.69355V11.5913H9.69318C9.27416 11.5913 8.93409 11.931 8.93409 12.3504C8.93409 12.7698 9.27416 13.1095 9.69318 13.1095H11.5909V15.0072C11.5909 15.4262 11.9306 15.7663 12.35 15.7663C12.7694 15.7663 13.1091 15.4262 13.1091 15.0072V13.1095H15.0068C15.4258 13.1095 15.7659 12.7698 15.7659 12.3504C15.7659 11.931 15.4258 11.5913 15.0068 11.5913H13.1091V9.69355C13.1091 9.27453 12.7694 8.93446 12.35 8.93446Z" fill="#2F7EF3"/>
</svg>
