<svg width="16" height="16" viewBox="0 0 16 16" fill="none" xmlns="http://www.w3.org/2000/svg">
<path d="M11.6667 13.3337L11.3957 13.74C11.1487 14.111 10.7323 14.3337 10.2863 14.3337H5.83332C4.08432 14.3337 2.66666 12.916 2.66666 11.167V4.71401C2.66666 4.26835 2.88932 3.85201 3.26032 3.60468L3.66666 3.33368V11.167C3.66666 12.3637 4.63666 13.3337 5.83332 13.3337H11.6667Z" fill="#2F7EF3"/>
<path d="M11.5 12.6671H6.16668C5.15568 12.6671 4.33334 11.8447 4.33334 10.8337V3.50039C4.33334 2.48939 5.15568 1.66705 6.16668 1.66705H11.5C12.511 1.66705 13.3333 2.48939 13.3333 3.50039V10.8337C13.3333 11.8447 12.511 12.6671 11.5 12.6671Z" fill="#2F7EF3"/>
</svg>
