<svg width="18" height="20" viewBox="0 0 18 20" fill="none" xmlns="http://www.w3.org/2000/svg">
<path d="M16.0938 0.00230528C15.9488 -0.00444472 15.8025 0.00439903 15.6562 0.029649L9 1.18981V9.00035H18V2.00035C18 1.40835 17.7401 0.850102 17.2871 0.469102C16.9474 0.183352 16.5286 0.0225553 16.0938 0.00230528ZM7 1.53746L1.65625 2.4691C0.69725 2.6371 0 3.46581 0 4.43981V9.00035H7V1.53746ZM0 11.0004V15.5609C0 16.5349 0.69725 17.3636 1.65625 17.5316L7 18.4632V11.0004H0ZM9 11.0004V18.8109L15.6562 19.9711C15.7712 19.9911 15.887 20.0004 16.002 20.0004C16.469 20.0004 16.9231 19.8356 17.2871 19.5296C17.7401 19.1486 18 18.5914 18 18.0004V11.0004H9Z" fill="#686E80"/>
</svg>
